<svg width="50" height="50" viewBox="0 0 50 50" fill="none" xmlns="http://www.w3.org/2000/svg">
<path d="M23.3629 0.0645821C18.2923 0.382927 13.328 2.30715 9.3551 5.49768C4.6669 9.26123 1.5013 14.5103 0.3895 20.3608C0.0849997 21.9808 0 23.0066 0 24.9945C0 27.4988 0.1912 29.0623 0.7719 31.2907C2.5707 38.1952 7.3509 44.0952 13.7104 47.2858C18.3631 49.6132 23.4408 50.448 28.5326 49.7123C36.5421 48.5591 43.5602 43.5434 47.2286 36.3418C48.6167 33.6111 49.4237 30.9582 49.8277 27.7889C49.9547 26.7914 49.9547 23.1976 49.8277 22.2002C49.2467 17.616 47.6464 13.5978 44.9978 10.0677C40.5292 4.11111 33.8369 0.51027 26.3727 0.0575081C25.0767 -0.0203099 24.7013 -0.0203099 23.3629 0.0645821ZM28.1077 0.79324C30.3951 1.11866 32.5126 1.69875 34.5097 2.54768C37.5832 3.84935 40.5858 5.96458 42.8449 8.40523C48.2487 14.2557 50.4437 22.0728 48.8857 29.9112C48.6737 30.9865 48.1707 32.6773 47.7526 33.7526C45.876 38.556 42.5971 42.5884 38.2701 45.4252C35.232 47.4131 31.7832 48.6865 28.0723 49.1888C26.925 49.3444 24.2127 49.4081 22.9592 49.302C16.9822 48.7997 11.4796 46.1609 7.3084 41.8032C0.828599 35.0401 -1.1827 25.1714 2.1245 16.378C2.3016 15.904 2.7336 14.9419 3.0735 14.2415C4.3482 11.6665 5.9133 9.50884 7.967 7.52094C11.9541 3.65835 16.8335 1.36626 22.4281 0.72957C23.5683 0.59516 27.0029 0.6376 28.1077 0.79324Z" fill="#663494"/>
<path d="M23.6317 3.26946C23.2493 3.43925 23.1643 3.65148 23.1997 4.34476C23.228 4.86826 23.2564 4.9673 23.4051 5.12294C23.7521 5.46958 24.4744 5.38469 24.6656 4.9673C24.7719 4.7197 24.7648 3.9203 24.6444 3.63025C24.4886 3.26239 24.0354 3.09968 23.6317 3.26946ZM24.262 3.6444C24.439 3.80004 24.4461 4.75507 24.2691 4.95316C24.1203 5.12294 23.8583 5.11586 23.6813 4.93901C23.5609 4.81874 23.5396 4.70555 23.5396 4.24572C23.5396 3.91323 23.575 3.65855 23.6246 3.60903C23.745 3.48877 24.1062 3.50292 24.262 3.6444Z" fill="#663494"/>
<path d="M25.9833 3.24103C25.7921 3.31178 25.6858 3.44619 25.6292 3.68672C25.5867 3.8565 25.6009 3.87772 25.7567 3.87772C25.8841 3.87772 25.9479 3.8282 25.9762 3.70087C26.0258 3.50278 26.3303 3.38959 26.5073 3.50278C26.5711 3.54523 26.6277 3.67257 26.6419 3.78576C26.6702 4.04751 26.4719 4.30218 25.9195 4.69127C25.4097 5.05914 25.4026 5.18648 25.8983 5.25015C26.0966 5.27137 26.4153 5.29259 26.6065 5.29259C26.8898 5.29259 26.9393 5.27137 26.9393 5.15111C26.9393 5.02377 26.8898 5.00962 26.5073 5.00962H26.0683L26.5427 4.56394C26.9535 4.17485 27.0101 4.08995 27.0101 3.86358C27.0101 3.50986 26.9535 3.39667 26.7198 3.2764C26.5003 3.16322 26.2099 3.14907 25.9833 3.24103Z" fill="#663494"/>
<path d="M21.3019 3.51701C21.1106 3.6302 20.9194 3.96269 20.9194 4.16785C20.9194 4.20322 20.9973 4.23152 21.0894 4.23152C21.2169 4.23152 21.2664 4.182 21.2948 4.02636C21.3727 3.65142 21.8117 3.56653 21.9888 3.88488C22.1021 4.10418 21.9605 4.41545 21.5214 4.93895C20.9407 5.61809 20.969 5.64639 21.9959 5.4766C22.6049 5.37756 22.6403 5.36341 22.5837 5.20778C22.5483 5.12289 22.4774 5.11581 22.2437 5.15826C21.6772 5.26437 21.6701 5.2573 21.9817 4.84699C22.357 4.34471 22.4491 4.07588 22.3358 3.79998C22.1729 3.41089 21.6984 3.27648 21.3019 3.51701Z" fill="#663494"/>
<path d="M28.384 3.53084C28.0582 3.62281 27.9449 3.79967 27.8175 4.40806C27.7112 4.91741 27.7112 4.98108 27.8175 5.20039C28.0016 5.58948 28.5186 5.74511 28.9151 5.53995C29.1418 5.42677 29.2338 5.22868 29.3542 4.60614C29.418 4.25243 29.418 4.11801 29.3471 3.94823C29.2126 3.61574 28.7593 3.42473 28.384 3.53084ZM28.9506 3.91993C29.0851 4.04727 29.0922 4.20998 28.993 4.73348C28.8868 5.31358 28.5256 5.53288 28.207 5.21454C28.0795 5.0872 28.0653 5.01645 28.1078 4.66981C28.1645 4.21705 28.2565 3.94116 28.3769 3.86334C28.5186 3.77137 28.8372 3.79967 28.9506 3.91993Z" fill="#663494"/>
<path d="M31.3226 5.19341C31.2589 5.27123 31.2518 5.3349 31.3084 5.41979C31.4076 5.57543 31.613 5.57543 31.7121 5.41272C31.7758 5.3066 31.7617 5.26415 31.6555 5.17926C31.4784 5.05192 31.4359 5.05192 31.3226 5.19341Z" fill="#663494"/>
<path d="M17.9525 5.31363C17.8251 5.47634 17.9384 5.66027 18.1508 5.63198C18.2925 5.61783 18.335 5.57538 18.335 5.4339C18.335 5.22874 18.0942 5.15092 17.9525 5.31363Z" fill="#663494"/>
<path d="M32.7036 5.75236C32.6328 5.92922 32.732 6.07071 32.9161 6.07071C33.1073 6.07071 33.2135 5.88678 33.0931 5.74529C32.9869 5.61088 32.7532 5.61795 32.7036 5.75236Z" fill="#663494"/>
<path d="M16.5786 5.83015C16.5077 5.90797 16.5148 6.12728 16.5998 6.1768C16.7414 6.26169 16.961 6.13435 16.9397 5.97872C16.9185 5.82308 16.6848 5.73111 16.5786 5.83015Z" fill="#663494"/>
<path d="M34.1059 6.37489C33.9926 6.5093 34.1625 6.72861 34.3467 6.69324C34.545 6.65787 34.5308 6.32537 34.3325 6.29707C34.2546 6.28292 34.1484 6.3183 34.1059 6.37489Z" fill="#663494"/>
<path d="M15.1903 6.51627C15.0629 6.67898 15.1762 6.86291 15.3886 6.83462C15.5303 6.82047 15.5727 6.77802 15.5727 6.63653C15.5727 6.43138 15.332 6.35356 15.1903 6.51627Z" fill="#663494"/>
<path d="M35.4516 7.0752C35.3241 7.20254 35.3453 7.32987 35.5153 7.42184C35.7207 7.52795 35.9331 7.33694 35.8198 7.14593C35.7207 6.9903 35.5649 6.96201 35.4516 7.0752Z" fill="#663494"/>
<path d="M13.9227 7.21692C13.8165 7.32304 13.8094 7.53527 13.9085 7.59186C13.951 7.61308 14.0431 7.61308 14.121 7.59186C14.2909 7.53527 14.3122 7.23814 14.1493 7.17447C14.0077 7.11788 14.0218 7.11788 13.9227 7.21692Z" fill="#663494"/>
<path d="M36.6697 7.94553C36.6201 8.06579 36.7547 8.26387 36.8892 8.26387C36.9388 8.26387 37.0167 8.21435 37.0663 8.15776C37.1371 8.07287 37.1371 8.03042 37.0663 7.94553C36.953 7.81112 36.7193 7.81112 36.6697 7.94553Z" fill="#663494"/>
<path d="M12.648 8.06585C12.5206 8.19319 12.5418 8.32053 12.6976 8.40542C12.8038 8.45494 12.8605 8.44787 12.9455 8.36297C13.0092 8.30638 13.0588 8.22856 13.0588 8.20027C13.0588 8.12245 12.8959 7.98096 12.8109 7.98096C12.7684 7.98096 12.6976 8.01633 12.648 8.06585Z" fill="#663494"/>
<path d="M37.8733 8.86498C37.8237 8.98524 37.9583 9.18332 38.0928 9.18332C38.1424 9.18332 38.2203 9.1338 38.2699 9.07721C38.3407 8.99231 38.3407 8.94987 38.2699 8.86498C38.1566 8.73056 37.9229 8.73056 37.8733 8.86498Z" fill="#663494"/>
<path d="M11.4725 9.0139C11.3379 9.14831 11.3521 9.24735 11.5221 9.35347C11.692 9.45956 11.9187 9.23321 11.8124 9.06342C11.7062 8.89364 11.6071 8.87949 11.4725 9.0139Z" fill="#663494"/>
<path d="M39.0069 9.85534C38.9503 9.98974 39.099 10.1737 39.2618 10.1737C39.4247 10.1737 39.5026 9.97564 39.3964 9.84834C39.2902 9.71394 39.0565 9.72094 39.0069 9.85534Z" fill="#663494"/>
<path d="M10.3038 10.0889C10.2471 10.195 10.2542 10.2516 10.3321 10.3153C10.4879 10.4426 10.7358 10.3365 10.7074 10.1526C10.6791 9.94742 10.4029 9.90502 10.3038 10.0889Z" fill="#663494"/>
<path d="M40.069 10.9659C40.0052 11.164 40.2106 11.3337 40.4018 11.2276C40.5576 11.1498 40.5718 11.0154 40.4514 10.8951C40.3168 10.7607 40.1256 10.7961 40.069 10.9659Z" fill="#663494"/>
<path d="M9.31949 11.1076C9.20619 11.2208 9.21329 11.4259 9.33369 11.4683C9.48239 11.5249 9.68069 11.3552 9.64529 11.1925C9.61689 11.0297 9.43989 10.9873 9.31949 11.1076Z" fill="#663494"/>
<path d="M22.3359 12.5791V13.2158H24.9562H27.5765V12.5791V11.9424H24.9562H22.3359V12.5791Z" fill="#663494"/>
<path d="M41.124 11.992C40.8903 12.084 41.1311 12.4731 41.3719 12.3882C41.4922 12.3387 41.4781 12.0345 41.3435 11.985C41.2798 11.9637 41.2302 11.9425 41.2231 11.9496C41.2161 11.9496 41.1665 11.9708 41.124 11.992Z" fill="#663494"/>
<path d="M8.28579 12.3315C8.22919 12.4872 8.31409 12.6499 8.45579 12.6499C8.61869 12.6499 8.76739 12.4659 8.71069 12.3315C8.66119 12.1971 8.34249 12.19 8.28579 12.3315Z" fill="#663494"/>
<path d="M42.0446 13.1945C41.8959 13.2511 41.9384 13.5553 42.0942 13.6048C42.2712 13.6614 42.3775 13.5977 42.3775 13.4279C42.3775 13.2794 42.1792 13.145 42.0446 13.1945Z" fill="#663494"/>
<path d="M7.4784 13.5127C7.3651 13.6259 7.3722 13.7461 7.4997 13.8523C7.6413 13.9725 7.8325 13.8169 7.8042 13.6117C7.7759 13.442 7.6059 13.3854 7.4784 13.5127Z" fill="#663494"/>
<path d="M22.3359 14.4892V15.1259H24.9562H27.5765V14.4892V13.8525H24.9562H22.3359V14.4892Z" fill="#663494"/>
<path d="M42.7599 14.5885C42.6891 14.7724 42.7883 14.9281 42.9582 14.8998C43.0786 14.8856 43.1211 14.829 43.1211 14.7017C43.1211 14.5743 43.0786 14.5178 42.9582 14.5036C42.8662 14.4895 42.7812 14.5248 42.7599 14.5885Z" fill="#663494"/>
<path d="M6.68538 14.8076C6.55078 14.9703 6.62868 15.1613 6.82698 15.1613C6.96148 15.1613 7.01108 15.1189 7.02528 14.9915C7.06068 14.7439 6.84118 14.6166 6.68538 14.8076Z" fill="#663494"/>
<path d="M43.511 15.8683C43.3765 16.0311 43.4544 16.2221 43.6527 16.2221C43.766 16.2221 43.8368 16.1796 43.851 16.0947C43.8793 15.9674 43.7518 15.7622 43.6527 15.7622C43.6243 15.7622 43.5606 15.8117 43.511 15.8683Z" fill="#663494"/>
<path d="M5.96978 16.1587C5.86358 16.2861 5.95558 16.4912 6.13968 16.5266C6.29548 16.562 6.43718 16.279 6.32388 16.1446C6.21758 16.0172 6.09018 16.0172 5.96978 16.1587Z" fill="#663494"/>
<path d="M44.0846 17.2694C43.9075 17.4887 44.1766 17.7363 44.4103 17.5665C44.5095 17.4887 44.5236 17.4392 44.4599 17.3402C44.3608 17.1774 44.1908 17.1421 44.0846 17.2694Z" fill="#663494"/>
<path d="M5.37542 17.609C5.31172 17.8 5.47462 17.9769 5.65162 17.9132C5.82872 17.8425 5.77202 17.5029 5.57372 17.4746C5.46752 17.4605 5.41082 17.4958 5.37542 17.609Z" fill="#663494"/>
<path d="M44.5729 18.7265C44.5234 18.8326 44.5304 18.8963 44.6154 18.9812C44.75 19.1085 44.8491 19.0944 44.9554 18.9317C45.0049 18.8468 44.9979 18.7831 44.9341 18.7053C44.8066 18.5497 44.665 18.5638 44.5729 18.7265Z" fill="#663494"/>
<path d="M4.9145 18.9817C4.8082 19.109 4.8649 19.2859 5.0278 19.3495C5.1977 19.4132 5.3535 19.1798 5.2615 19.01C5.1765 18.8473 5.0349 18.8402 4.9145 18.9817Z" fill="#663494"/>
<path d="M13.8384 22.306V24.5344H14.2279H14.6174V22.306V20.0776H14.2279H13.8384V22.306Z" fill="#663494"/>
<path d="M27.5762 22.3065V24.5349H27.9303C28.2631 24.5349 28.2844 24.5207 28.2844 24.351V24.1741L28.5181 24.351C29.1271 24.8179 30.1115 24.6693 30.5293 24.0397C31.1383 23.1483 30.7559 21.8679 29.7928 21.592C29.3537 21.4646 28.9925 21.5141 28.6243 21.7476L28.3552 21.9174V20.9977V20.0781H27.9657H27.5762V22.3065ZM29.6299 22.3065C29.8849 22.4409 30.0548 22.7451 30.0548 23.0846C30.0548 23.594 29.6936 23.9689 29.205 23.9689C28.7164 23.9689 28.3552 23.594 28.3552 23.0846C28.3552 22.3984 29.0209 21.9881 29.6299 22.3065Z" fill="#663494"/>
<path d="M44.9552 20.1768C44.8844 20.3608 44.9836 20.5164 45.1535 20.4881C45.2739 20.4739 45.3164 20.4173 45.3164 20.29C45.3164 20.1627 45.2739 20.1061 45.1535 20.0919C45.0615 20.0778 44.9765 20.1131 44.9552 20.1768Z" fill="#663494"/>
<path d="M10.134 20.1982C10.1057 20.2194 10.0845 21.2098 10.0845 22.3912V24.5347H11.2034C12.2869 24.5347 12.3365 24.5277 12.7047 24.3367C13.1509 24.1103 13.3421 23.8132 13.3421 23.325C13.3421 22.9289 13.1296 22.5822 12.7685 22.3771L12.5135 22.2356L12.7756 22.0516C12.9668 21.9172 13.0588 21.7828 13.1084 21.5706C13.2784 20.9268 12.9101 20.375 12.2161 20.2265C11.8195 20.1416 10.2119 20.1204 10.134 20.1982ZM12.1665 21.0046C12.3931 21.1815 12.4215 21.5635 12.2161 21.7687C12.0603 21.9243 11.6141 22.0092 11.1822 21.9738L10.8989 21.9526L10.8776 21.4008L10.8564 20.8561H11.4159C11.8762 20.8561 12.0107 20.8844 12.1665 21.0046ZM12.3861 22.8369C12.5773 23.0138 12.6198 23.3109 12.4852 23.5585C12.3648 23.7778 11.9824 23.8981 11.3946 23.8981H10.8635V23.2543V22.6105L11.5362 22.6388C12.1169 22.66 12.2303 22.6883 12.3861 22.8369Z" fill="#663494"/>
<path d="M4.53918 20.4035C4.45418 20.4884 4.48248 20.6936 4.59578 20.7855C4.73748 20.9058 4.92868 20.7501 4.90028 20.545C4.87908 20.3964 4.63828 20.3045 4.53918 20.4035Z" fill="#663494"/>
<path d="M16.2247 21.5918C15.1128 21.9031 14.7375 23.4099 15.5802 24.1952C16.168 24.747 17.294 24.7611 17.8606 24.2306C18.2501 23.8698 18.4342 23.2472 18.2996 22.7096C18.0943 21.8323 17.1595 21.3301 16.2247 21.5918ZM17.1665 22.3063C17.7331 22.5964 17.726 23.5231 17.1665 23.8556C16.7841 24.0749 16.2459 23.9547 16.0051 23.5797C15.8352 23.318 15.8422 22.7945 16.0193 22.561C16.2813 22.2002 16.7629 22.0941 17.1665 22.3063Z" fill="#663494"/>
<path d="M19.7297 21.6202C19.057 21.8607 18.71 22.3488 18.71 23.0492C18.71 23.7566 19.0641 24.2943 19.6802 24.5348C19.8006 24.5843 20.0909 24.6197 20.3388 24.6197C20.9761 24.6126 21.4435 24.3438 21.7197 23.8203C21.8968 23.4878 21.918 23.3746 21.8968 22.9643C21.8755 22.5752 21.833 22.4337 21.6631 22.1861C21.2594 21.6202 20.4308 21.3726 19.7297 21.6202ZM20.8841 22.4337C21.1744 22.7238 21.2523 23.0704 21.1036 23.4241C20.7708 24.2306 19.5669 24.075 19.4536 23.2119C19.3757 22.6389 19.7581 22.2074 20.3459 22.2003C20.6008 22.2003 20.6929 22.2427 20.8841 22.4337Z" fill="#663494"/>
<path d="M23.6324 21.5704C23.512 21.6058 23.342 21.719 23.2641 21.818L23.1225 21.9949L23.1012 21.7968C23.08 21.6128 23.0517 21.5987 22.7472 21.5775L22.4072 21.5562V23.0419V24.5345H22.7613H23.1154V23.6502C23.1154 22.7094 23.1862 22.4193 23.4624 22.2708C23.6961 22.1505 24.0219 22.1859 24.1777 22.3556C24.3051 22.4971 24.3193 22.6032 24.3193 23.5229V24.5345H24.7088H25.0983V23.5441C25.0983 22.582 25.1054 22.5396 25.2754 22.3769C25.4949 22.1505 25.8844 22.1363 26.0898 22.3415C26.2172 22.4688 26.2314 22.5749 26.2314 23.5088V24.5345H26.6209H27.0104V23.5229C27.0104 22.9711 26.975 22.3981 26.9325 22.2425C26.8333 21.8887 26.6067 21.6624 26.2385 21.5633C25.8419 21.4572 25.4878 21.535 25.1904 21.7968C24.9638 21.9949 24.9354 22.0019 24.8717 21.8887C24.7796 21.7331 24.2697 21.4926 24.036 21.4997C23.9369 21.4997 23.7598 21.535 23.6324 21.5704Z" fill="#663494"/>
<path d="M32.2644 21.592C31.5209 21.8325 31.1526 22.3843 31.2022 23.1908C31.2234 23.594 31.2659 23.7355 31.4359 23.976C31.9599 24.7188 33.1851 24.8462 33.8649 24.2307C33.9499 24.1529 34.0207 24.068 34.0207 24.0468C34.0207 24.0255 33.9074 23.9336 33.78 23.8416L33.5321 23.6718L33.263 23.8558C32.8168 24.1599 32.2857 24.0821 32.0378 23.6718C31.9599 23.5445 31.8962 23.4171 31.8962 23.3818C31.8962 23.3535 32.4061 23.3323 33.0293 23.3323H34.1624V23.021C34.1624 22.4338 33.8791 21.8891 33.4471 21.6698C33.1638 21.5212 32.6044 21.4859 32.2644 21.592ZM33.2063 22.2853C33.2984 22.3772 33.3905 22.5187 33.4188 22.6036C33.4613 22.7663 33.4613 22.7663 32.6823 22.7663C32.2503 22.7663 31.8962 22.7522 31.8962 22.7309C31.8962 22.5965 32.1441 22.257 32.3069 22.165C32.569 22.0164 33.008 22.073 33.2063 22.2853Z" fill="#663494"/>
<path d="M35.9542 21.5706C35.8338 21.606 35.6638 21.7192 35.5859 21.8182L35.4443 21.9951L35.423 21.797C35.4018 21.613 35.3805 21.5989 35.0335 21.5777L34.6582 21.5564V23.0421V24.5347H35.0477H35.4372V23.6151C35.4372 22.7025 35.4372 22.6954 35.6426 22.469C35.8196 22.2709 35.8904 22.2427 36.2091 22.2427H36.5703V21.9102C36.5703 21.4857 36.457 21.422 35.9542 21.5706Z" fill="#663494"/>
<path d="M37.6042 21.5988C36.9527 21.8322 36.6411 22.2921 36.6411 23.0419C36.6411 23.9333 37.1368 24.5134 37.9583 24.5841C38.3053 24.6124 38.4328 24.5912 38.7161 24.4427L39.0489 24.2729V24.5771C39.0489 24.8176 39.0064 24.9379 38.8436 25.1147C38.6453 25.334 38.6099 25.3482 38.1425 25.3482C37.7175 25.3482 37.6113 25.3199 37.3776 25.1501L37.1014 24.9591L36.981 25.1147C36.7049 25.4755 36.6765 25.5887 36.8252 25.7019C37.2926 26.0556 38.4611 26.1476 39.0135 25.8788C39.7075 25.5392 39.8279 25.1359 39.8279 23.1056V21.5634H39.4738C39.1268 21.5634 39.1197 21.5634 39.1197 21.7827V22.002L38.9073 21.8181C38.6878 21.6412 38.2841 21.4927 38.0221 21.4927C37.9442 21.4997 37.753 21.5422 37.6042 21.5988ZM38.6948 22.3062C39.1056 22.5184 39.2401 23.0985 38.9781 23.523C38.8081 23.813 38.6169 23.9121 38.2345 23.9121C37.5405 23.9121 37.1652 23.2895 37.4626 22.6529C37.5263 22.5184 37.6609 22.3628 37.7671 22.3062C38.0079 22.1718 38.4399 22.1718 38.6948 22.3062Z" fill="#663494"/>
<path d="M45.2459 21.6343C45.2247 21.6767 45.2247 21.7687 45.2459 21.8536C45.3167 22.0729 45.5929 22.0021 45.6213 21.7545C45.6425 21.5918 45.6213 21.5635 45.4655 21.5635C45.3663 21.5635 45.2672 21.5989 45.2459 21.6343Z" fill="#663494"/>
<path d="M4.2917 21.9314C4.1784 22.0446 4.1854 22.1649 4.3058 22.2639C4.4616 22.3912 4.64581 22.2781 4.61741 22.0658C4.59621 21.8677 4.4262 21.797 4.2917 21.9314Z" fill="#663494"/>
<path d="M45.4513 23.148C45.3805 23.332 45.4797 23.4876 45.6496 23.4593C45.77 23.4452 45.8125 23.3886 45.8125 23.2612C45.8125 23.1339 45.77 23.0773 45.6496 23.0631C45.5576 23.049 45.4726 23.0844 45.4513 23.148Z" fill="#663494"/>
<path d="M4.15009 23.4172C4.01559 23.5516 4.05098 23.7426 4.21388 23.7921C4.40508 23.8558 4.51128 23.7497 4.47588 23.5374C4.45458 23.3464 4.28469 23.2828 4.15009 23.4172Z" fill="#663494"/>
<path d="M45.5433 24.7185C45.4513 24.8104 45.4938 25.1075 45.6071 25.15C45.777 25.2137 45.9682 24.9873 45.8762 24.8316C45.7912 24.6972 45.6212 24.6406 45.5433 24.7185Z" fill="#663494"/>
<path d="M4.10021 24.9377C4.03651 24.9943 4.00101 25.0933 4.02231 25.1499C4.04351 25.2065 4.06481 25.2702 4.06481 25.2843C4.06481 25.3692 4.41181 25.2985 4.44721 25.2065C4.54631 24.9518 4.28431 24.7467 4.10021 24.9377Z" fill="#663494"/>
<path d="M45.4513 26.4024C45.3805 26.5863 45.4797 26.742 45.6496 26.7137C45.77 26.6995 45.8125 26.6429 45.8125 26.5156C45.8125 26.3882 45.77 26.3317 45.6496 26.3175C45.5576 26.3034 45.4726 26.3387 45.4513 26.4024Z" fill="#663494"/>
<path d="M4.10038 26.5226C4.06498 26.6358 4.08618 26.7066 4.17118 26.7702C4.34818 26.9047 4.50398 26.8127 4.47568 26.5934C4.44738 26.3458 4.17118 26.2962 4.10038 26.5226Z" fill="#663494"/>
<path d="M45.3306 27.8384C45.2385 27.9304 45.281 28.1992 45.4014 28.2416C45.5643 28.3053 45.7342 28.1214 45.6705 27.9374C45.628 27.7959 45.4297 27.7394 45.3306 27.8384Z" fill="#663494"/>
<path d="M4.32709 27.902C4.23509 28.001 4.27759 28.2698 4.39799 28.3123C4.57499 28.383 4.75909 28.1708 4.65999 28.0152C4.57499 27.8808 4.40499 27.8242 4.32709 27.902Z" fill="#663494"/>
<path d="M19.1493 29.2674V29.8263L18.9297 29.7201C18.6181 29.5645 18.2428 29.6423 18.002 29.9111C17.832 30.088 17.8037 30.187 17.8037 30.5195C17.8037 30.8733 17.825 30.9369 18.0445 31.1562C18.2428 31.3543 18.3348 31.3968 18.5969 31.3968C18.7668 31.3968 18.9793 31.3472 19.0643 31.2836C19.2059 31.1845 19.2201 31.1845 19.2201 31.2836C19.2201 31.3543 19.2838 31.3968 19.3971 31.3968H19.5742V30.0526V28.7085H19.3617H19.1493V29.2674ZM18.9014 30.0243C18.958 30.0526 19.0643 30.1658 19.1209 30.279C19.3051 30.6327 19.0784 31.043 18.7031 31.043C18.3986 31.043 18.2286 30.8662 18.2286 30.5337C18.2286 30.1163 18.5331 29.8828 18.9014 30.0243Z" fill="#663494"/>
<path d="M34.3184 30.0314L34.3396 31.3614L34.5379 31.3826L34.7291 31.4038V30.0597V28.7085H34.5167H34.3042L34.3184 30.0314Z" fill="#663494"/>
<path d="M11.572 28.8429C11.2533 28.9065 11.0834 29.0056 10.8567 29.2532C10.276 29.8757 10.4743 30.9015 11.2533 31.3118C11.5153 31.4462 12.3085 31.4604 12.6201 31.333L12.8467 31.2411V30.6114V29.9818H12.3439C11.8694 29.9818 11.8482 29.9889 11.8694 30.1375C11.8836 30.2719 11.9403 30.3072 12.1598 30.3214C12.4218 30.3426 12.4218 30.3497 12.4218 30.6539C12.4218 30.951 12.4147 30.9652 12.174 31.0147C11.6711 31.1066 11.31 30.9369 11.0834 30.4983C10.8851 30.1162 11.1046 29.4937 11.5012 29.2956C11.742 29.1754 12.0606 29.1824 12.3085 29.3098C12.4926 29.4088 12.528 29.4088 12.6484 29.3027C12.8184 29.14 12.8113 29.0834 12.5847 28.9702C12.3227 28.8358 11.8836 28.7863 11.572 28.8429Z" fill="#663494"/>
<path d="M25.3813 30.1235V31.3969H26.2312H27.081V31.1846V30.9724H26.4436H25.8063V30.6187V30.265H26.3728C26.9323 30.265 26.9393 30.265 26.9393 30.0881C26.9393 29.9113 26.9323 29.9113 26.3728 29.9113H25.8063V29.5929V29.2746H26.4082H27.0102V29.0623V28.8501H26.1958H25.3813V30.1235Z" fill="#663494"/>
<path d="M35.4375 28.9563C35.31 29.1049 35.4162 29.3454 35.6074 29.3454C35.8411 29.3454 35.9615 29.1827 35.8624 28.9987C35.7774 28.829 35.5649 28.8077 35.4375 28.9563Z" fill="#663494"/>
<path d="M36.5704 29.4512C36.5704 29.6492 36.5421 29.6988 36.4287 29.6988C36.3225 29.6988 36.2871 29.7483 36.2871 29.8756C36.2871 30.003 36.3225 30.0525 36.4287 30.0525C36.5562 30.0525 36.5704 30.102 36.5704 30.5831C36.5704 31.0217 36.5916 31.1349 36.7191 31.2622C36.9103 31.4532 37.3848 31.432 37.3848 31.2198C37.3848 31.1349 37.3211 31.0712 37.2077 31.0429C37.0449 31.0075 37.0307 30.9651 37.0095 30.5335C36.9882 30.0666 36.9882 30.0596 37.1865 30.0383C37.3281 30.0242 37.3919 29.9747 37.406 29.8544C37.4273 29.72 37.399 29.6988 37.2148 29.6988C37.0095 29.6988 36.9953 29.6775 36.9953 29.4512C36.9953 29.2248 36.9811 29.2036 36.7828 29.2036C36.5845 29.2036 36.5704 29.2248 36.5704 29.4512Z" fill="#663494"/>
<path d="M45.0477 29.3171C44.9557 29.4091 44.9982 29.685 45.1115 29.7275C45.2673 29.7911 45.4372 29.6355 45.4089 29.4586C45.3876 29.3101 45.1469 29.2181 45.0477 29.3171Z" fill="#663494"/>
<path d="M4.60988 29.3878C4.51778 29.4869 4.56028 29.7557 4.68068 29.7982C4.85768 29.8689 5.04188 29.6567 4.94268 29.501C4.85768 29.3666 4.68778 29.31 4.60988 29.3878Z" fill="#663494"/>
<path d="M13.9373 29.6988C13.8594 29.7271 13.7036 29.8615 13.5973 29.9889C13.4203 30.194 13.3991 30.2648 13.4274 30.6114C13.4557 30.9297 13.4982 31.0288 13.6894 31.1986C13.9939 31.4674 14.5746 31.4815 14.8721 31.2269C15.0704 31.0642 15.0704 31.0642 14.9216 30.9863C14.8083 30.9227 14.7234 30.9297 14.5676 31.0076C14.4613 31.0642 14.3055 31.0925 14.2276 31.0712C14.0647 31.0217 13.8381 30.8378 13.8381 30.7458C13.8381 30.7175 14.1285 30.6892 14.4755 30.6892H15.1129V30.4558C15.1129 29.8615 14.5109 29.4654 13.9373 29.6988ZM14.603 30.0667C14.7942 30.2577 14.695 30.3355 14.263 30.3355C14.0293 30.3355 13.8381 30.3143 13.8381 30.286C13.8381 30.0455 14.4118 29.8757 14.603 30.0667Z" fill="#663494"/>
<path d="M16.2594 29.7415C16.1744 29.7981 16.1036 29.8122 16.1036 29.7768C16.1036 29.7344 16.0116 29.699 15.8912 29.699H15.6787V30.5479V31.3969H15.8912H16.1036V30.8097C16.1036 30.3216 16.1249 30.1942 16.2311 30.1023C16.394 29.9537 16.5569 29.9466 16.6985 30.0952C16.7835 30.1801 16.8118 30.3499 16.8118 30.8026V31.3969H17.0243H17.2367V30.7177C17.2367 30.0669 17.2296 30.0315 17.0313 29.8334C16.7976 29.6 16.5073 29.5646 16.2594 29.7415Z" fill="#663494"/>
<path d="M20.5798 29.7699C20.0204 30.1095 20.0345 31.0574 20.6082 31.3121C21.0897 31.5385 21.9679 31.2909 21.6917 31.0079C21.5925 30.9089 21.5571 30.9089 21.3234 31.0079C21.026 31.1282 20.764 31.0645 20.6365 30.8381C20.5657 30.6966 20.5869 30.6966 21.2172 30.6754L21.8758 30.6542L21.8616 30.442C21.805 29.7345 21.1818 29.4091 20.5798 29.7699ZM21.4013 30.1731L21.5005 30.3358H21.0331C20.5444 30.3358 20.5303 30.3217 20.7286 30.067C20.8419 29.9185 21.2739 29.9892 21.4013 30.1731Z" fill="#663494"/>
<path d="M23.016 29.7765C22.8673 29.8968 22.8319 29.9039 22.8319 29.8119C22.8319 29.7341 22.7682 29.6987 22.6194 29.6987H22.3999L22.4211 30.5264L22.4424 31.3612L22.6265 31.3824C22.8177 31.4036 22.8177 31.4036 22.839 30.8377C22.8673 30.2222 22.9452 30.0737 23.2568 30.0312C23.3843 30.01 23.4409 29.9534 23.4551 29.819C23.4834 29.5785 23.2922 29.5572 23.016 29.7765Z" fill="#663494"/>
<path d="M27.9869 29.7416C27.7249 29.8831 27.5762 30.1873 27.5762 30.5905C27.5762 30.8664 27.6116 30.9513 27.817 31.1565C28.0152 31.3545 28.1073 31.397 28.3693 31.397C28.5393 31.397 28.7518 31.3475 28.8367 31.2838L28.9925 31.1777V31.7153V32.253L29.1908 32.2318L29.382 32.2105L29.4033 30.9513L29.4174 29.6991H29.205C29.0563 29.6991 28.9925 29.7345 28.9925 29.8123C28.9925 29.9043 28.9571 29.8972 28.8084 29.777C28.5889 29.6072 28.256 29.593 27.9869 29.7416ZM28.7801 30.1236C29.1342 30.4773 28.9642 30.9867 28.4756 31.0291C28.1781 31.0574 28.0011 30.8593 28.0011 30.4985C28.0011 30.0529 28.4756 29.8194 28.7801 30.1236Z" fill="#663494"/>
<path d="M32.4847 29.7343C32.2298 29.8405 32.1944 29.9183 32.3502 30.0456C32.4281 30.1093 32.4918 30.1093 32.598 30.0598C32.8034 29.9466 33.0725 29.9678 33.2 30.0951C33.3629 30.2578 33.2921 30.3144 32.8813 30.3498C32.2156 30.4135 31.9111 30.8521 32.2794 31.22C32.4776 31.418 32.853 31.4605 33.1221 31.319C33.2354 31.2553 33.2779 31.2553 33.2991 31.319C33.3133 31.3614 33.4054 31.3968 33.4974 31.3968C33.6674 31.3968 33.6674 31.3897 33.6674 30.7177C33.6674 30.0668 33.6603 30.0315 33.462 29.8334C33.2212 29.5999 32.8742 29.5646 32.4847 29.7343ZM33.3133 30.654C33.3133 30.7955 33.115 31.0572 32.9805 31.0855C32.6476 31.1704 32.3927 30.8945 32.6405 30.7177C32.7609 30.6257 33.3133 30.5762 33.3133 30.654Z" fill="#663494"/>
<path d="M30.0552 30.3925C30.0552 31.0292 30.0693 31.0999 30.2181 31.2414C30.4164 31.4254 30.7988 31.4466 31.0325 31.2839C31.1741 31.1848 31.1883 31.1848 31.1883 31.2909C31.1883 31.3758 31.2378 31.3971 31.3866 31.3829L31.5778 31.3617L31.599 30.5269L31.6203 29.6992H31.4007H31.1883V30.1732C31.1883 30.8099 31.082 31.008 30.7634 31.008H30.5155L30.4943 30.3501L30.473 29.6992H30.2676H30.0552V30.3925Z" fill="#663494"/>
<path d="M35.4375 30.5476V31.3966H35.6499H35.8624V30.5476V29.6987H35.6499H35.4375V30.5476Z" fill="#663494"/>
<path d="M37.6328 29.7204C37.6328 29.7417 37.7886 30.1307 37.9869 30.5835C38.3268 31.3758 38.3339 31.4183 38.2348 31.6163C38.1285 31.8144 38.0577 31.8498 37.8665 31.8286C37.8099 31.8215 37.7744 31.8993 37.7744 32.0408C37.7744 32.2601 37.7815 32.2601 38.0365 32.2247C38.1781 32.1964 38.3552 32.1257 38.4189 32.0549C38.4897 31.9842 38.7376 31.4324 38.9713 30.8311C39.3678 29.8053 39.382 29.7346 39.2545 29.7134C38.9996 29.6709 38.9429 29.7417 38.7659 30.2934C38.6738 30.5906 38.5818 30.8311 38.5534 30.8311C38.5251 30.8311 38.4118 30.5835 38.2985 30.2793C38.1073 29.7629 38.079 29.7346 37.8594 29.7134C37.739 29.6992 37.6328 29.7063 37.6328 29.7204Z" fill="#663494"/>
<path d="M23.6816 30.5123C23.6816 30.6821 23.7029 30.6892 24.1065 30.6892C24.5102 30.6892 24.5315 30.6821 24.5315 30.5123C24.5315 30.3425 24.5102 30.3354 24.1065 30.3354C23.7029 30.3354 23.6816 30.3425 23.6816 30.5123Z" fill="#663494"/>
<path d="M44.6154 30.8663C44.5587 31.0219 44.6437 31.1846 44.7854 31.1846C44.9482 31.1846 45.0828 31.0149 45.0261 30.8734C44.9695 30.7319 44.6721 30.7248 44.6154 30.8663Z" fill="#663494"/>
<path d="M4.94303 30.9298C4.87223 31.1138 4.97143 31.2694 5.14133 31.2411C5.26173 31.227 5.30423 31.1704 5.30423 31.043C5.30423 30.9157 5.26173 30.8591 5.14133 30.8449C5.04933 30.8308 4.96433 30.8662 4.94303 30.9298Z" fill="#663494"/>
<path d="M44.162 32.2599C44.0487 32.3731 44.0558 32.4226 44.1833 32.557C44.3037 32.6773 44.4665 32.6419 44.5303 32.4862C44.6294 32.2386 44.3532 32.0689 44.162 32.2599Z" fill="#663494"/>
<path d="M5.4389 32.3447C5.3681 32.5286 5.4672 32.6701 5.6584 32.6701C5.8213 32.6701 5.8426 32.6418 5.8213 32.472C5.8001 32.2527 5.5097 32.1537 5.4389 32.3447Z" fill="#663494"/>
<path d="M24.8853 33.0948V33.6678L24.6728 33.5546C24.3895 33.406 24.17 33.4202 23.8867 33.6112C23.2848 34.0144 23.4264 35.019 24.1063 35.2241C24.34 35.2949 24.4179 35.2878 24.6657 35.1675C24.8923 35.0544 24.9561 35.0473 24.9561 35.118C24.9561 35.1746 25.0269 35.2171 25.1331 35.2171H25.3102V33.8729V32.5288H25.0977H24.8853V33.0948ZM24.7224 33.9578C24.9561 34.1771 24.949 34.5945 24.7011 34.7855C24.5949 34.8704 24.4745 34.9341 24.4249 34.9341C24.3754 34.9341 24.255 34.8704 24.1488 34.7855C24.0071 34.6723 23.9646 34.5804 23.9646 34.3611C23.9646 33.8659 24.3825 33.6395 24.7224 33.9578Z" fill="#663494"/>
<path d="M20.2822 33.9787V35.2168H20.4947H20.7071V33.9787V32.7407H20.4947H20.2822V33.9787Z" fill="#663494"/>
<path d="M22.1232 33.4978C22.0666 33.519 21.9603 33.5827 21.8966 33.6464C21.7833 33.7454 21.7691 33.7383 21.7691 33.6393C21.7691 33.5615 21.7125 33.519 21.5921 33.519H21.415V34.3679V35.2169H21.6275H21.8329L21.8541 34.6014C21.8754 34.0142 21.8824 33.9788 22.0666 33.8798C22.2365 33.7808 22.2649 33.7808 22.3994 33.901C22.5269 34.0142 22.5481 34.1203 22.5481 34.6297V35.2169H22.7677H22.9872L22.9589 34.5023C22.9376 33.8232 22.9305 33.7808 22.7393 33.6181C22.5481 33.4553 22.3498 33.4129 22.1232 33.4978Z" fill="#663494"/>
<path d="M26.3726 33.5686C25.8981 33.8162 25.7494 34.4882 26.0752 34.9268C26.3443 35.2876 27.0241 35.3654 27.3853 35.0683C27.527 34.9551 27.534 34.9339 27.4278 34.8278C27.3216 34.7217 27.2933 34.7217 27.0596 34.8349C26.7621 34.9764 26.5072 34.9056 26.3726 34.6509C26.3018 34.5165 26.316 34.5094 26.9392 34.5094H27.5765V34.2265C27.5765 33.6322 26.9321 33.2785 26.3726 33.5686ZM27.0666 33.8869C27.1162 33.9364 27.1516 34.0284 27.1516 34.0991C27.1516 34.2052 27.0879 34.2265 26.7267 34.2265C26.2735 34.2265 26.2168 34.1699 26.4434 33.9435C26.5992 33.7879 26.9321 33.7525 27.0666 33.8869Z" fill="#663494"/>
<path d="M28.0015 33.5615C28.0015 33.5827 28.129 33.7666 28.2848 33.9576L28.568 34.3113L28.2069 34.7641L27.8457 35.2169H28.1219C28.3556 35.2098 28.4193 35.1744 28.5964 34.9197L28.8018 34.6226L28.9646 34.8136C29.0567 34.9197 29.1558 35.0541 29.1913 35.1178C29.2337 35.1956 29.3329 35.2169 29.5099 35.2027L29.772 35.1815L29.4533 34.7924C29.2833 34.5802 29.1417 34.3679 29.1346 34.3255C29.1346 34.283 29.2479 34.0991 29.3825 33.9222C29.517 33.7454 29.6303 33.5827 29.6303 33.5615C29.6303 33.5402 29.517 33.519 29.3825 33.519C29.2479 33.519 29.1346 33.5402 29.1346 33.5685C29.1346 33.6039 29.0567 33.7171 28.9717 33.8303L28.8018 34.0354L28.646 33.7808C28.5114 33.5615 28.4477 33.519 28.2423 33.519C28.1077 33.519 28.0015 33.5402 28.0015 33.5615Z" fill="#663494"/>
<path d="M6.07598 33.6891C5.93438 33.7952 5.97688 33.9933 6.16098 34.064C6.30258 34.1206 6.49378 33.9296 6.43718 33.7881C6.37338 33.6254 6.22468 33.583 6.07598 33.6891Z" fill="#663494"/>
<path d="M43.5387 33.696C43.4679 33.8728 43.5671 34.0285 43.737 34.0002C43.8574 33.986 43.907 33.9223 43.9212 33.7809C43.9424 33.6181 43.9212 33.5898 43.7583 33.5898C43.6591 33.5898 43.56 33.6394 43.5387 33.696Z" fill="#663494"/>
<path d="M42.9088 34.9834C42.845 35.04 42.8096 35.139 42.8309 35.1956C42.8521 35.2522 42.8734 35.3159 42.8734 35.33C42.8734 35.4008 43.1496 35.3513 43.2204 35.2593C43.3974 35.0471 43.1071 34.7853 42.9088 34.9834Z" fill="#663494"/>
<path d="M6.7631 35.0332C6.6285 35.1959 6.7347 35.4294 6.9401 35.4294C7.1384 35.4294 7.2375 35.2525 7.1313 35.0827C7.0322 34.9271 6.8693 34.9059 6.7631 35.0332Z" fill="#663494"/>
<path d="M42.1152 36.2568C41.9877 36.3063 42.0019 36.5256 42.1293 36.6317C42.271 36.752 42.4622 36.5963 42.4339 36.3912C42.4126 36.2426 42.2781 36.1861 42.1152 36.2568Z" fill="#663494"/>
<path d="M7.5139 36.3771C7.4147 36.6247 7.6768 36.8511 7.868 36.6954C7.9246 36.6459 7.96 36.5398 7.9459 36.462C7.9175 36.278 7.5776 36.2144 7.5139 36.3771Z" fill="#663494"/>
<path d="M41.216 37.516C41.131 37.6009 41.1239 37.6646 41.1735 37.7707C41.2656 37.9334 41.4072 37.9476 41.5347 37.7919C41.5984 37.7141 41.6055 37.6504 41.5559 37.5655C41.4497 37.4028 41.3506 37.3887 41.216 37.516Z" fill="#663494"/>
<path d="M8.41316 37.5798C8.34236 37.7637 8.42026 37.9406 8.56896 37.9618C8.78136 37.9901 8.90886 37.8133 8.80976 37.6293C8.72476 37.4595 8.46976 37.4312 8.41316 37.5798Z" fill="#663494"/>
<path d="M9.41159 38.7261C9.28409 38.8534 9.29829 38.9595 9.46119 39.0586C9.60989 39.1576 9.80109 39.0727 9.80109 38.9029C9.80109 38.6907 9.56029 38.5846 9.41159 38.7261Z" fill="#663494"/>
<path d="M40.2106 38.7115C40.1398 38.8954 40.2389 39.051 40.4089 39.0227C40.5293 39.0086 40.5718 38.9521 40.5718 38.8248C40.5718 38.6974 40.5293 38.6407 40.4089 38.6266C40.3168 38.6124 40.2319 38.6478 40.2106 38.7115Z" fill="#663494"/>
<path d="M39.2048 39.7589C39.0915 39.8721 39.0985 39.9923 39.2189 40.0914C39.4172 40.2541 39.7005 39.9711 39.5376 39.773C39.4385 39.6528 39.3181 39.6457 39.2048 39.7589Z" fill="#663494"/>
<path d="M10.4178 39.8438C10.3611 39.9853 10.4249 40.148 10.5523 40.1975C10.7365 40.2683 10.871 40.1621 10.8498 39.9641C10.8356 39.8226 10.786 39.7731 10.6444 39.7589C10.524 39.7448 10.439 39.7801 10.4178 39.8438Z" fill="#663494"/>
<path d="M38.0933 40.7634C37.9516 40.8695 37.987 41.0676 38.1641 41.1313C38.2916 41.1808 38.4828 41.0464 38.4828 40.9049C38.4828 40.7492 38.2349 40.6573 38.0933 40.7634Z" fill="#663494"/>
<path d="M11.5646 40.8483C11.4442 40.9968 11.5646 41.1949 11.7912 41.1949C11.9187 41.1949 11.9683 41.1525 11.9824 41.0251C12.0249 40.7563 11.7416 40.636 11.5646 40.8483Z" fill="#663494"/>
<path d="M36.8892 41.6829C36.7475 41.789 36.7829 41.9871 36.96 42.0508C37.0875 42.1003 37.2787 41.9659 37.2787 41.8244C37.2787 41.6687 37.0308 41.5768 36.8892 41.6829Z" fill="#663494"/>
<path d="M12.7895 41.7396C12.6761 41.8528 12.6832 41.9731 12.8107 42.0792C12.9594 42.2065 13.2002 42.1004 13.2002 41.9023C13.2002 41.676 12.9523 41.5769 12.7895 41.7396Z" fill="#663494"/>
<path d="M35.6147 42.5459C35.4872 42.6803 35.5014 42.7794 35.6643 42.8855C35.7493 42.935 35.813 42.928 35.8909 42.8643C36.0396 42.744 36.0396 42.5318 35.8909 42.4752C35.7422 42.4186 35.7493 42.4186 35.6147 42.5459Z" fill="#663494"/>
<path d="M14.0288 42.5529C13.9225 42.652 13.9863 42.8642 14.1492 42.942C14.3687 43.041 14.5457 42.9703 14.5457 42.7934C14.5457 42.5883 14.1633 42.4114 14.0288 42.5529Z" fill="#663494"/>
<path d="M34.517 43.2462C34.4037 43.3806 34.4745 43.5646 34.6445 43.5646C34.8215 43.5646 34.9561 43.4019 34.8994 43.2533C34.8428 43.1118 34.6303 43.1047 34.517 43.2462Z" fill="#663494"/>
<path d="M15.5654 43.4584C15.4946 43.6353 15.5938 43.7768 15.7779 43.7768C15.9691 43.7768 16.0754 43.5928 15.955 43.4514C15.8487 43.3169 15.615 43.324 15.5654 43.4584Z" fill="#663494"/>
<path d="M33.171 43.8831C33.0506 44.0316 33.1356 44.2014 33.341 44.2014C33.5393 44.2014 33.603 44.0812 33.511 43.8972C33.4331 43.7487 33.2914 43.7416 33.171 43.8831Z" fill="#663494"/>
<path d="M16.9256 44.1026C16.8619 44.2583 17.0106 44.428 17.1948 44.3997C17.301 44.3856 17.3435 44.329 17.3435 44.2017C17.3435 44.0602 17.301 44.0177 17.1593 44.0036C17.0319 43.9894 16.954 44.0248 16.9256 44.1026Z" fill="#663494"/>
<path d="M31.755 44.4489C31.6346 44.5975 31.7196 44.7672 31.925 44.7672C32.1162 44.7672 32.2224 44.5833 32.102 44.4418C31.9958 44.3145 31.8683 44.3145 31.755 44.4489Z" fill="#663494"/>
<path d="M18.3774 44.5764C18.2003 44.7957 18.519 45.0787 18.7173 44.8735C18.8023 44.7886 18.8094 44.7391 18.7527 44.6401C18.6465 44.4845 18.4836 44.4562 18.3774 44.5764Z" fill="#663494"/>
<path d="M30.3527 44.8521C30.1544 45.0502 30.3315 45.319 30.5864 45.22C30.7281 45.1634 30.721 44.8663 30.5794 44.8097C30.4377 44.7531 30.4519 44.7531 30.3527 44.8521Z" fill="#663494"/>
<path d="M19.8364 44.9584C19.7373 45.0504 19.7868 45.2626 19.9214 45.3334C20.1197 45.4324 20.3109 45.2414 20.2117 45.0433C20.1409 44.9089 19.9285 44.8594 19.8364 44.9584Z" fill="#663494"/>
<path d="M28.8444 45.2341C28.724 45.3756 28.8515 45.5878 29.0356 45.5595C29.2198 45.5241 29.2835 45.4039 29.1985 45.2482C29.1135 45.0926 28.9719 45.0855 28.8444 45.2341Z" fill="#663494"/>
<path d="M21.3231 45.3122C21.224 45.4042 21.2806 45.6093 21.4152 45.6518C21.6064 45.7154 21.6985 45.6447 21.6985 45.4325C21.6985 45.3051 21.6631 45.2627 21.5356 45.2627C21.4435 45.2627 21.3444 45.2839 21.3231 45.3122Z" fill="#663494"/>
<path d="M22.8243 45.5173C22.7181 45.6446 22.8101 45.8498 22.9942 45.8851C23.1713 45.9205 23.2775 45.6517 23.143 45.5173C23.0084 45.3758 22.9447 45.3758 22.8243 45.5173Z" fill="#663494"/>
<path d="M27.3215 45.5099C27.2506 45.6868 27.3498 45.8424 27.5197 45.8141C27.6401 45.8 27.6897 45.7363 27.7039 45.5948C27.7251 45.4321 27.7039 45.4038 27.541 45.4038C27.4418 45.4038 27.3427 45.4533 27.3215 45.5099Z" fill="#663494"/>
<path d="M25.8979 45.5241C25.7704 45.5737 25.7846 45.8779 25.9121 45.9274C26.167 46.0264 26.3441 45.7576 26.1458 45.5595C26.0537 45.4676 26.0325 45.4676 25.8979 45.5241Z" fill="#663494"/>
<path d="M24.2765 45.6518C24.2057 45.8286 24.4323 46.0267 24.5881 45.9277C24.6519 45.8852 24.7085 45.7862 24.7085 45.7154C24.7085 45.5386 24.3403 45.482 24.2765 45.6518Z" fill="#663494"/>
</svg>
