<svg width="46" height="54" viewBox="0 0 46 54" fill="none" xmlns="http://www.w3.org/2000/svg">
<g clip-path="url(#clip0_727_1284)">
<path d="M23.0002 49.1483C35.2323 49.1483 45.1483 39.2323 45.1483 27.0002C45.1483 14.7681 35.2323 4.85205 23.0002 4.85205C10.7681 4.85205 0.852051 14.7681 0.852051 27.0002C0.852051 39.2323 10.7681 49.1483 23.0002 49.1483Z" stroke="#0662AD" stroke-width="1.7037" stroke-miterlimit="10" stroke-linecap="round"/>
<path d="M23.0003 49.1483C28.6929 49.1483 33.3077 39.2323 33.3077 27.0002C33.3077 14.7681 28.6929 4.85205 23.0003 4.85205C17.3077 4.85205 12.6929 14.7681 12.6929 27.0002C12.6929 39.2323 17.3077 49.1483 23.0003 49.1483Z" stroke="#0662AD" stroke-width="1.7037" stroke-miterlimit="10" stroke-linecap="round"/>
<path d="M2.04443 19.7593H43.9555" stroke="#0662AD" stroke-width="1.7037" stroke-miterlimit="10" stroke-linecap="round"/>
<path d="M2.12988 34.4111H43.8706" stroke="#0662AD" stroke-width="1.7037" stroke-miterlimit="10" stroke-linecap="round"/>
</g>
<defs>
<clipPath id="clip0_727_1284">
<rect width="46" height="54" fill="white"/>
</clipPath>
</defs>
</svg>
