<svg width="46" height="54" viewBox="0 0 46 54" fill="none" xmlns="http://www.w3.org/2000/svg">
<g clip-path="url(#clip0_727_910)">
<path d="M22.9998 49.9148C10.3072 49.9148 0.0849609 39.6926 0.0849609 27C0.0849609 14.3074 10.3072 4.08521 22.9998 4.08521C35.6924 4.08521 45.9998 14.3074 45.9998 27C45.9998 39.6926 35.6924 49.9148 22.9998 49.9148ZM22.9998 9.19632C13.2035 9.19632 5.19607 17.2037 5.19607 27C5.19607 36.7963 13.2035 44.8037 22.9998 44.8037C32.7961 44.8037 40.8035 36.7963 40.8035 27C40.8035 17.2037 32.7961 9.19632 22.9998 9.19632Z" fill="#EDF5FB"/>
<path d="M34.1588 22.7408V21.0371C34.1588 19.8445 33.2218 18.8223 31.944 18.8223H14.0551C12.8626 18.8223 11.8403 19.7593 11.8403 21.0371V22.7408H34.1588Z" fill="#0061AE"/>
<path d="M11.8403 25.0408V32.963C11.8403 34.1556 12.7774 35.1778 14.0551 35.1778H31.944C33.1366 35.1778 34.1588 34.2408 34.1588 32.963V25.0408H11.8403ZM29.3033 32.3667C28.7922 32.3667 28.2811 32.1111 27.8551 31.7704C27.5144 32.1111 27.0033 32.3667 26.407 32.3667C25.2996 32.3667 24.3626 31.4297 24.3626 30.3223C24.3626 29.2148 25.2996 28.2778 26.407 28.2778C26.9181 28.2778 27.4292 28.5334 27.8551 28.8741C28.1959 28.5334 28.707 28.2778 29.3033 28.2778C30.4107 28.2778 31.3477 29.2148 31.3477 30.3223C31.3477 31.5148 30.4107 32.3667 29.3033 32.3667Z" fill="#0061AE"/>
</g>
<defs>
<clipPath id="clip0_727_910">
<rect width="46" height="54" fill="white"/>
</clipPath>
</defs>
</svg>
